<svg width="20" height="20" viewBox="0 0 20 20" fill="none" xmlns="http://www.w3.org/2000/svg">
<path d="M9.99967 0C6.17272 0 3.05933 3.11385 3.05933 6.94089C3.05933 10.6248 9.35642 19.2316 9.62455 19.596L9.87478 19.9366C9.90405 19.9766 9.95065 20 9.99967 20C10.0495 20 10.0958 19.9766 10.1253 19.9366L10.3754 19.596C10.6437 19.2316 16.9406 10.6248 16.9406 6.94089C16.9406 3.11385 13.8267 0 9.99967 0ZM9.99967 4.45468C11.3709 4.45468 12.4859 5.56974 12.4859 6.94089C12.4859 8.31134 11.3708 9.42711 9.99967 9.42711C8.62927 9.42711 7.51345 8.31134 7.51345 6.94089C7.51345 5.56974 8.62922 4.45468 9.99967 4.45468Z" fill="black"/>
</svg>
